<?xml version="1.0" encoding="UTF-8" standalone="no"?>
<svg width="88px" height="90px" viewBox="0 0 88 90" version="1.1" xmlns="http://www.w3.org/2000/svg" xmlns:xlink="http://www.w3.org/1999/xlink" xmlns:sketch="http://www.bohemiancoding.com/sketch/ns">
    <!-- Generator: Sketch 3.3.3 (12081) - http://www.bohemiancoding.com/sketch -->
    <title>Slice 1</title>
    <desc>Created with Sketch.</desc>
    <defs></defs>
    <g id="Page-1" stroke="none" stroke-width="1" fill="none" fill-rule="evenodd" sketch:type="MSPage">
        <g id="noun_138703_cc" sketch:type="MSLayerGroup" fill="#000000">
            <path d="M81.366,0 L6.634,0 C3.306,0 0.608,2.698 0.608,6.027 L0.608,83.974 C0.608,87.302 3.306,90 6.634,90 L81.366,90 C84.694,90 87.392,87.302 87.392,83.974 L87.392,6.027 C87.393,2.698 84.694,0 81.366,0 L81.366,0 Z M23.107,51.429 L16.678,51.429 L16.678,80.358 L13.464,80.358 L13.464,51.429 L7.035,51.429 L7.035,45 L13.464,45 L13.464,9.643 L16.678,9.643 L16.678,45 L23.107,45 L23.107,51.429 L23.107,51.429 Z M52.036,67.5 L45.607,67.5 L45.607,80.357 L42.393,80.357 L42.393,67.5 L35.964,67.5 L35.964,61.071 L42.393,61.071 L42.393,9.643 L45.607,9.643 L45.607,61.071 L52.036,61.071 L52.036,67.5 L52.036,67.5 Z M80.964,32.143 L74.536,32.143 L74.536,80.357 L71.321,80.357 L71.321,32.143 L64.892,32.143 L64.892,25.714 L71.321,25.714 L71.321,9.643 L74.536,9.643 L74.536,25.714 L80.964,25.714 L80.964,32.143 L80.964,32.143 Z" id="Shape" sketch:type="MSShapeGroup"></path>
        </g>
    </g>
</svg>