<?xml version="1.0" encoding="UTF-8" standalone="no"?>
<svg width="383px" height="382px" viewBox="0 0 383 382" version="1.1" xmlns="http://www.w3.org/2000/svg" xmlns:xlink="http://www.w3.org/1999/xlink" xmlns:sketch="http://www.bohemiancoding.com/sketch/ns">
    <!-- Generator: Sketch 3.3.3 (12081) - http://www.bohemiancoding.com/sketch -->
    <title>Slice 1</title>
    <desc>Created with Sketch.</desc>
    <defs></defs>
    <g id="Page-1" stroke="none" stroke-width="1" fill="none" fill-rule="evenodd" sketch:type="MSPage">
        <g id="Shape-Copy-+-Oval-1-+-2" sketch:type="MSLayerGroup" transform="translate(3.000000, 2.000000)">
            <g>
                <path d="M276.882265,171.430359 L259.702666,188.571848 L259.702666,146 L236.919305,146 L236.819032,148.401232 C236.711044,151.835687 233.727899,154.129172 230.023554,154.129172 C226.309568,154.129172 223.326422,152.033866 223.230005,148.599411 L223.129732,146 L170.95651,146 L170.858165,148.401232 C170.754034,151.835687 167.770889,154.129172 164.068472,154.129172 C160.354486,154.129172 157.371341,152.033866 157.26721,148.599411 L157.168865,146 L134.383575,146 L134.383575,159.1606 L121.193716,159.1606 L121.193716,172.321201 L108,172.321201 L108,297.366144 L233.322947,297.366144 L233.322947,284.199772 L246.50895,284.199772 L246.50895,271.039172 L259.702666,271.039172 L259.702666,197.878548 L281.550781,176.080822 L276.882265,171.430359 L276.882265,171.430359 Z M140.976577,192.064025 L173.958939,192.064025 L173.958939,224.973222 L140.976577,224.973222 L140.976577,192.064025 L140.976577,192.064025 Z M140.976577,231.553522 L173.958939,231.553522 L173.958939,264.46272 L140.976577,264.46272 L140.976577,231.553522 L140.976577,231.553522 Z M226.724161,290.787768 L114.591073,290.787768 L114.591073,178.905349 L121.193716,178.905349 L121.193716,284.201696 L226.724161,284.201696 L226.724161,290.787768 L226.724161,290.787768 Z M239.912092,277.621396 L127.786717,277.621396 L127.786717,165.742825 L134.383575,165.742825 L134.383575,271.039172 L239.912092,271.039172 L239.912092,277.621396 L239.912092,277.621396 Z M213.532373,231.553522 L213.532373,264.46272 L180.55194,264.46272 L180.55194,231.553522 L213.532373,231.553522 L213.532373,231.553522 Z M180.55194,224.975146 L180.55194,192.064025 L213.532373,192.064025 L213.532373,224.973222 L180.55194,224.973222 L180.55194,224.975146 Z M253.105808,264.460795 L220.127303,264.460795 L220.127303,231.553522 L253.105808,231.553522 L253.105808,264.460795 L253.105808,264.460795 Z M253.105808,195.150224 L239.237172,208.997716 L230.567347,200.356743 L225.906544,205.014903 L239.237172,218.306339 L253.105808,204.462696 L253.105808,224.975146 L220.127303,224.975146 L220.127303,192.064025 L253.105808,192.064025 L253.105808,195.150224 L253.105808,195.150224 Z M253.105808,185.487573 L140.976577,185.487573 L140.976577,152.578376 L151.179434,152.578376 C152.779958,155.874298 157.920918,161.904316 164.068472,161.904316 C170.206385,161.904316 175.347345,155.874298 176.947869,152.578376 L217.146086,152.578376 C218.740825,155.874298 223.877928,161.904316 230.025483,161.904316 C236.173037,161.904316 241.31014,155.874298 242.904879,152.578376 L253.107737,152.578376 L253.107737,185.487573 L253.105808,185.487573 Z" id="Shape-Copy" fill="#889FF6" sketch:type="MSShapeGroup"></path>
                <circle id="Oval-1" stroke="#889FF6" stroke-width="5" sketch:type="MSShapeGroup" cx="188.689453" cy="188.798828" r="188.201172"></circle>
                <text id="2" sketch:type="MSTextLayer" font-family="GT Walsheim" font-size="72.125" font-weight="normal" sketch:alignment="middle" fill="#889FF6">
                    <tspan x="171.897852" y="102.025391">2</tspan>
                </text>
            </g>
        </g>
    </g>
</svg>