<?xml version="1.0" encoding="UTF-8" standalone="no"?>
<svg width="382px" height="382px" viewBox="0 0 382 382" version="1.1" xmlns="http://www.w3.org/2000/svg" xmlns:xlink="http://www.w3.org/1999/xlink" xmlns:sketch="http://www.bohemiancoding.com/sketch/ns">
    <!-- Generator: Sketch 3.3.3 (12081) - http://www.bohemiancoding.com/sketch -->
    <title>How_It_Works</title>
    <desc>Created with Sketch.</desc>
    <defs></defs>
    <g id="Page-1" stroke="none" stroke-width="1" fill="none" fill-rule="evenodd" sketch:type="MSPage">
        <g id="Group" sketch:type="MSLayerGroup" transform="translate(2.000000, 2.000000)">
            <circle id="Oval-1-Copy" stroke="#889FF6" stroke-width="5" sketch:type="MSShapeGroup" cx="189.146484" cy="188.798828" r="188.201172"></circle>
            <text id="1" sketch:type="MSTextLayer" font-family="GT Walsheim" font-size="72.125" font-weight="normal" sketch:alignment="middle" fill="#889FF6">
                <tspan x="168.974023" y="102.025391">1</tspan>
            </text>
            <path d="M146.485445,162.465739 L146.485445,150.408406 L141.180111,150.408406 C140.573445,147.952406 139.604111,145.637739 138.330778,143.531072 L142.082778,139.779072 L133.556111,131.252406 L129.805445,135.004406 C127.696111,133.731072 125.384111,132.761739 122.928111,132.155072 L122.928111,126.848406 L110.870778,126.848406 L110.870778,132.155072 C108.414778,132.761739 106.101445,133.731072 103.993445,135.004406 L100.242778,131.252406 L91.7161114,139.779072 L95.4667781,143.529739 C94.1947781,145.639072 93.2267781,147.953739 92.6187781,150.409739 L87.3134448,150.409739 L87.3134448,162.467072 L92.6187781,162.467072 C93.2267781,164.923072 94.1947781,167.235072 95.4667781,169.344406 L91.7161114,173.095072 L100.242778,181.621739 L103.993445,177.871072 C106.101445,179.144406 108.414778,180.111072 110.870778,180.717739 L110.870778,186.024406 L122.928111,186.024406 L122.928111,180.717739 C125.384111,180.111072 127.696111,179.144406 129.805445,177.871072 L133.556111,181.621739 L142.082778,173.095072 L138.330778,169.344406 C139.604111,167.235072 140.573445,164.923072 141.180111,162.467072 L146.485445,162.467072 L146.485445,162.465739 Z M116.900111,171.465739 C108.598778,171.465739 101.870778,164.736406 101.870778,156.437739 C101.870778,148.135072 108.600111,141.407072 116.900111,141.407072 C125.200111,141.407072 131.928111,148.136406 131.928111,156.437739 C131.929445,164.737739 125.201445,171.465739 116.900111,171.465739 L116.900111,171.465739 Z" id="Shape" fill="#889FF6" sketch:type="MSShapeGroup"></path>
            <path d="M183.712111,150.080406 L188.212111,145.580406 L186.233445,143.601739 C186.924111,142.459072 187.424111,141.235072 187.736111,139.973739 L190.536111,139.973739 L190.536111,133.609739 L187.736111,133.609739 C187.424111,132.349739 186.924111,131.125739 186.233445,129.981739 L188.212111,128.003072 L183.712111,123.505739 L181.733445,125.484406 C180.590778,124.793739 179.369445,124.291072 178.105445,123.979072 L178.105445,121.181739 L171.744111,121.181739 L171.744111,123.979072 C170.484111,124.291072 169.257445,124.793739 168.116111,125.484406 L166.137445,123.505739 L161.637445,128.003072 L163.616111,129.981739 C162.925445,131.124406 162.425445,132.348406 162.113445,133.612406 L159.313445,133.612406 L159.313445,139.973739 L162.113445,139.973739 C162.425445,141.233739 162.928111,142.457739 163.616111,143.601739 L161.637445,145.580406 L166.137445,150.080406 L168.116111,148.099072 C169.258778,148.789739 170.482778,149.292406 171.744111,149.604406 L171.744111,152.404406 L178.105445,152.404406 L178.105445,149.604406 C179.368111,149.292406 180.589445,148.789739 181.733445,148.099072 L183.712111,150.080406 L183.712111,150.080406 Z M169.318778,142.397739 C166.220111,139.301739 166.220111,134.280406 169.316111,131.184406 C172.412111,128.088406 177.436111,128.088406 180.532111,131.184406 C183.628111,134.280406 183.628111,139.301739 180.532111,142.397739 C177.436111,145.493739 172.414778,145.493739 169.318778,142.397739 L169.318778,142.397739 Z" id="Shape" fill="#889FF6" sketch:type="MSShapeGroup"></path>
            <g transform="translate(142.000000, 161.000000)" sketch:type="MSShapeGroup">
                <ellipse id="Oval-5" stroke="#889FF6" stroke-width="6.5" cx="47.4827586" cy="47.6052632" rx="47.4827586" ry="47.6052632"></ellipse>
                <path d="M82.6551724,84.0438596 L135.413793,133.412281" id="Line" stroke="#889FF6" stroke-width="6.5" stroke-linecap="square"></path>
                <path d="M96.7241379,96.9736842 L135.413793,133.412281" id="Line-Copy-2" stroke="#889FF6" stroke-width="10" stroke-linecap="square"></path>
                <path d="M33.6529655,69.6535465 L42.84,73.427488 L44.4985747,69.3745757 C46.5588966,69.6770553 48.623908,69.66295 50.6295172,69.3494997 L52.3146667,73.389874 L61.4735632,69.5454062 L59.7852874,65.5050319 C61.4125977,64.2935465 62.8726437,62.8265991 64.1028966,61.1433711 L68.1453793,62.8030904 L71.9096092,53.5923535 L67.8671264,51.9294997 C68.1688276,49.8669968 68.1547586,47.7935231 67.8421149,45.785874 L71.872092,44.0932424 L68.0375172,34.9138506 L64.0075402,36.6033477 C62.7991724,34.9718389 61.3391264,33.508026 59.6571034,32.2745991 L61.3125517,28.2216869 L52.1255172,24.4477453 L50.470069,28.5037921 C48.4097471,28.1981781 46.3416092,28.2122834 44.3391264,28.5257336 L42.6508506,24.4853594 L33.491954,28.3329617 L35.1802299,32.3702015 C33.5529195,33.5816869 32.0928736,35.0486342 30.8626207,36.7349968 L26.8201379,35.072143 L23.055908,44.2828798 L27.1015172,45.9457336 C26.7966897,48.0113711 26.8107586,50.0817103 27.1234023,52.0893594 L23.0934253,53.781991 L26.928,62.9645173 L30.957977,61.2718857 C32.1694713,62.9033945 33.6295172,64.3672073 35.3115402,65.6006342 L33.6529655,69.6535465 L33.6529655,69.6535465 Z M36.0321839,44.234295 C38.624,37.8947629 45.8507586,34.8589968 52.173977,37.4574997 C58.5003218,40.0528681 61.5251494,47.3014062 58.9364598,53.6409383 C56.3446437,59.983605 49.1178851,63.0162366 42.7915402,60.4208681 C36.4683218,57.8223652 33.4403678,50.5769617 36.0321839,44.234295 L36.0321839,44.234295 Z" id="Shape" fill="#889FF6"></path>
            </g>
        </g>
    </g>
</svg>