<?xml version="1.0" encoding="UTF-8" standalone="no"?>
<svg width="384px" height="384px" viewBox="0 0 384 384" version="1.1" xmlns="http://www.w3.org/2000/svg" xmlns:xlink="http://www.w3.org/1999/xlink" xmlns:sketch="http://www.bohemiancoding.com/sketch/ns">
    <!-- Generator: Sketch 3.3.3 (12081) - http://www.bohemiancoding.com/sketch -->
    <title>Slice 1</title>
    <desc>Created with Sketch.</desc>
    <defs></defs>
    <g id="Page-1" stroke="none" stroke-width="1" fill="none" fill-rule="evenodd" sketch:type="MSPage">
        <g id="Oval-1-Copy-2-+-3-+-Group" sketch:type="MSLayerGroup" transform="translate(4.000000, 4.000000)">
            <ellipse id="Oval-1-Copy-2" stroke="#889FF6" stroke-width="6.5" sketch:type="MSShapeGroup" cx="188.201172" cy="188.201172" rx="188.201172" ry="188.201172"></ellipse>
            <text id="3" sketch:type="MSTextLayer" font-family="GT Walsheim" font-size="72.125" font-weight="normal" sketch:alignment="middle" fill="#889FF6">
                <tspan x="172.112695" y="101">3</tspan>
            </text>
            <g id="Group" transform="translate(88.000000, 134.000000)" stroke="#889FF6" stroke-width="6.5" sketch:type="MSShapeGroup">
                <path d="M85.3684729,108.912676 C89.7901478,108.912676 93.4078818,112.543099 93.4078818,116.980282 C93.4078818,121.417465 89.7901478,125.047887 85.3684729,125.047887 L32.0571429,125.047887" id="Shape"></path>
                <path d="M87.3783251,92.7774648 C91.8,92.7774648 95.417734,96.4078873 95.417734,100.84507 C95.417734,105.282254 91.8,108.912676 87.3783251,108.912676 L65.7724138,108.912676" id="Shape"></path>
                <path d="M89.3881773,76.6422535 C93.8098522,76.6422535 97.4275862,80.2726761 97.4275862,84.7098592 C97.4275862,89.1470423 93.8098522,92.7774648 89.3881773,92.7774648 L65.7724138,92.7774648" id="Shape"></path>
                <path d="M87.8807882,76.6422535 C92.3024631,76.6422535 95.920197,73.011831 95.920197,68.5746479 C95.920197,64.1374648 92.3024631,60.5070423 87.8807882,60.5070423 L32.0571429,60.5070423" id="Shape"></path>
                <path d="M89.3881773,76 L65.7724138,76" id="Shape"></path>
                <path d="M32.6098522,60.5070423 C14.8729064,60.5070423 0.452216749,74.9783099 0.452216749,92.7774648 C0.452216749,110.57662 14.8729064,125.047887 32.6098522,125.047887" id="Shape"></path>
                <path d="M70.2945813,61.4639667 L67.0285714,53.7914081 C63.2600985,45.012895 59.391133,45.1511393 53.2610837,46.1188494 C44.1665025,47.5012924 35.1221675,52.1324765 27.8364532,61.8095775" id="Shape"></path>
                <path d="M169.903448,108.912676 C174.325123,108.912676 177.942857,112.543099 177.942857,116.980282 C177.942857,121.417465 174.325123,125.047887 169.903448,125.047887 L116.592118,125.047887" id="Shape" transform="translate(147.267488, 116.980282) scale(-1, 1) translate(-147.267488, -116.980282) "></path>
                <path d="M136.188177,92.7774648 C140.609852,92.7774648 144.227586,96.4078873 144.227586,100.84507 C144.227586,105.282254 140.609852,108.912676 136.188177,108.912676 L114.582266,108.912676" id="Shape" transform="translate(129.404926, 100.845070) scale(-1, 1) translate(-129.404926, -100.845070) "></path>
                <path d="M136.188177,76.6422535 C140.609852,76.6422535 144.227586,80.2726761 144.227586,84.7098592 C144.227586,89.1470423 140.609852,92.7774648 136.188177,92.7774648 L112.572414,92.7774648" id="Shape" transform="translate(128.400000, 84.709859) scale(-1, 1) translate(-128.400000, -84.709859) "></path>
                <path d="M169.903448,76.6422535 C174.325123,76.6422535 177.942857,73.011831 177.942857,68.5746479 C177.942857,64.1374648 174.325123,60.5070423 169.903448,60.5070423 L114.079803,60.5070423" id="Shape" transform="translate(146.011330, 68.574648) scale(-1, 1) translate(-146.011330, -68.574648) "></path>
                <path d="M144.227586,76 L120.611823,76" id="Shape" transform="translate(132.419704, 79.250000) scale(-1, 1) translate(-132.419704, -79.250000) "></path>
                <path d="M209.547783,60.5070423 C191.810837,60.5070423 177.390148,74.9783099 177.390148,92.7774648 C177.390148,110.57662 191.810837,125.047887 209.547783,125.047887" id="Shape" transform="translate(193.468966, 92.777465) scale(-1, 1) translate(-193.468966, -92.777465) "></path>
                <path d="M182.163547,61.4639667 L178.897537,53.7914081 C175.129064,45.012895 171.260099,45.1511393 165.130049,46.1188494 C156.035468,47.5012924 146.991133,52.1324765 139.705419,61.8095775" id="Shape" transform="translate(160.934483, 53.741972) scale(-1, 1) translate(-160.934483, -53.741972) "></path>
                <path d="M105,0.302535211 L105,35.8504225" id="Shape"></path>
                <path d="M72.1891626,11.5467606 L97.262069,36.7076056" id="Shape"></path>
                <path d="M137.961576,11.5467606 L112.88867,36.7076056" id="Shape"></path>
                <path d="M105,178.899155 L105,143.351268" id="Shape"></path>
                <path d="M137.961576,167.604507 L112.88867,142.494085" id="Shape"></path>
                <path d="M72.1891626,167.604507 L97.262069,142.494085" id="Shape"></path>
            </g>
        </g>
    </g>
</svg>