<?xml version="1.0" encoding="UTF-8" standalone="no"?>
<svg width="212px" height="56px" viewBox="0 0 212 56" version="1.1" xmlns="http://www.w3.org/2000/svg" xmlns:xlink="http://www.w3.org/1999/xlink" xmlns:sketch="http://www.bohemiancoding.com/sketch/ns">
    <!-- Generator: Sketch 3.3.3 (12081) - http://www.bohemiancoding.com/sketch -->
    <title>Slice 1</title>
    <desc>Created with Sketch.</desc>
    <defs></defs>
    <g id="Page-1" stroke="none" stroke-width="1" fill="none" fill-rule="evenodd" sketch:type="MSPage">
        <g id="Imported-Layers" sketch:type="MSLayerGroup" fill="#FFFFFF">
            <path d="M25.338,28.566 L43.359,28.566 C43.359,31.826 43.204,34.333 42.896,36.091 C42.586,37.849 41.995,39.568 41.122,41.251 C39.545,44.298 37.33,46.769 34.476,48.664 C31.025,50.965 27.18,52.114 22.941,52.114 C19.256,52.114 15.784,51.231 12.525,49.463 C8.372,47.184 5.229,43.925 3.099,39.685 C1.522,36.533 0.735,33.156 0.735,29.557 C0.735,25.062 1.917,20.962 4.282,17.255 C6.475,13.848 9.404,11.206 13.068,9.332 C16.348,7.67 19.842,6.839 23.548,6.839 C28.426,6.839 32.783,8.245 36.617,11.057 C38.044,12.101 39.652,13.645 41.441,15.69 L36.745,20.195 C33.123,15.424 28.757,13.038 23.645,13.038 C18.958,13.038 14.996,14.721 11.758,18.086 C8.819,21.132 7.349,24.956 7.349,29.557 C7.349,34.435 9.085,38.429 12.557,41.539 C15.816,44.457 19.352,45.916 23.165,45.916 C26.445,45.916 29.364,44.824 31.92,42.641 C34.476,40.458 35.914,37.832 36.233,34.765 L25.338,34.765 L25.338,28.566" id="Fill-1" sketch:type="MSShapeGroup"></path>
            <path d="M75.758,13.869 L58.249,13.869 L58.249,24.317 L75.215,24.317 L75.215,30.516 L58.249,30.516 L58.249,45.085 L75.758,45.085 L75.758,51.284 L51.667,51.284 L51.667,7.67 L75.758,7.67 L75.758,13.869" id="Fill-2" sketch:type="MSShapeGroup"></path>
            <path d="M111.287,40.676 L92.627,40.676 L87.771,51.284 L80.677,51.284 L102.277,4.89 L123.078,51.284 L115.889,51.284 L111.287,40.676 L111.287,40.676 Z M108.636,34.478 L102.149,19.652 L95.375,34.478 L108.636,34.478 L108.636,34.478 Z" id="Fill-3" sketch:type="MSShapeGroup"></path>
            <path d="M144.612,32.688 L158.128,51.284 L150.076,51.284 L137.614,33.423 L136.433,33.423 L136.433,51.284 L129.851,51.284 L129.851,7.67 L137.551,7.67 C140.362,7.67 142.642,7.861 144.389,8.245 C146.135,8.628 147.69,9.278 149.054,10.194 C150.672,11.28 151.961,12.782 152.92,14.699 C153.815,16.51 154.262,18.438 154.262,20.482 C154.262,23.529 153.377,26.17 151.609,28.407 C149.841,30.643 147.509,32.071 144.612,32.688 L144.612,32.688 Z M136.433,27.672 L138.541,27.672 C141.437,27.672 143.621,27.15 145.091,26.106 C146.923,24.828 147.839,22.975 147.839,20.546 C147.839,18.289 146.987,16.564 145.283,15.37 C143.834,14.369 141.661,13.869 138.765,13.869 L136.433,13.869 L136.433,27.672 L136.433,27.672 Z" id="Fill-4" sketch:type="MSShapeGroup"></path>
            <path d="M200.969,9.344 L198.273,13.395 C203.253,16.896 206.511,22.681 206.511,29.231 C206.511,39.916 197.849,48.58 187.163,48.58 C183.338,48.58 179.774,47.464 176.771,45.548 L172.498,48.494 C176.569,51.597 181.649,53.442 187.163,53.442 C200.535,53.442 211.375,42.604 211.375,29.231 C211.375,20.991 207.257,13.717 200.969,9.344" id="Fill-5" sketch:type="MSShapeGroup"></path>
            <path d="M167.815,29.23 C167.815,18.545 176.478,9.882 187.163,9.882 C189.718,9.882 192.155,10.383 194.389,11.282 L198.444,7.806 C195.074,6.029 191.237,5.018 187.163,5.018 C173.791,5.018 162.951,15.858 162.951,29.23 C162.951,35.923 165.667,41.981 170.056,46.363 L173.153,42.565 C169.848,39.094 167.815,34.4 167.815,29.23" id="Fill-6" sketch:type="MSShapeGroup"></path>
            <path d="M170.88,31.43 L182.349,31.287 L173.152,42.565 C174.232,43.698 175.446,44.702 176.771,45.547 L204.437,26.474 L189.571,26.474 L198.273,13.394 C197.071,12.549 195.769,11.839 194.388,11.282 L170.88,31.43" id="Fill-7" sketch:type="MSShapeGroup"></path>
            <path d="M162.951,55.075 L172.498,48.494 C171.638,47.836 170.819,47.127 170.055,46.363 L162.951,55.075" id="Fill-8" sketch:type="MSShapeGroup"></path>
            <path d="M206.703,0.727 L198.443,7.806 C199.318,8.268 200.162,8.782 200.969,9.344 L206.703,0.727" id="Fill-9" sketch:type="MSShapeGroup"></path>
        </g>
    </g>
</svg>