<?xml version="1.0" encoding="UTF-8" standalone="no"?>
<svg width="89px" height="98px" viewBox="0 0 89 98" version="1.1" xmlns="http://www.w3.org/2000/svg" xmlns:xlink="http://www.w3.org/1999/xlink" xmlns:sketch="http://www.bohemiancoding.com/sketch/ns">
    <!-- Generator: Sketch 3.3.3 (12081) - http://www.bohemiancoding.com/sketch -->
    <title>Slice 1</title>
    <desc>Created with Sketch.</desc>
    <defs></defs>
    <g id="Page-1" stroke="none" stroke-width="1" fill="none" fill-rule="evenodd" sketch:type="MSPage">
        <g id="noun_21697_cc" sketch:type="MSLayerGroup" fill="#000000">
            <g id="Group" sketch:type="MSShapeGroup">
                <path d="M89,35.955 L89,36.772 C86.666,37.96 84.499,39.318 82.112,40.452 C82.352,43.386 82.398,46.722 82.112,49.644 C84.343,51.205 86.765,52.572 89,54.133 L89,54.346 C88.559,55.725 88.244,57.233 87.815,58.637 C85.291,58.526 82.362,58.848 80.142,58.422 C78.621,61.147 77.5,64.266 75.609,66.592 C77.051,68.912 78.396,71.334 79.742,73.738 C79.011,75.156 77.675,75.953 76.794,77.22 C74.404,76.019 72.066,74.763 69.906,73.341 C67.502,75.136 65.169,76.991 62.427,78.441 C62.479,81.298 62.903,83.787 62.813,86.824 C61.571,87.359 60.274,87.855 58.887,88.244 C56.974,86.408 55.666,83.949 54.354,81.51 C51.681,82.135 48.93,82.676 45.489,82.533 C44.328,85.064 43.311,87.744 42.15,90.289 C40.644,90.144 39.067,90.072 37.817,89.68 C37.274,87.233 36.94,84.594 36.832,81.709 C35.39,81.164 33.884,80.678 32.299,80.271 C33.353,77.345 34.351,74.376 35.454,71.494 C55.155,77.82 74.633,64.445 73.255,43.108 C72.26,27.846 59.85,17.249 46.081,16.96 C31.088,16.651 16.468,28.722 17.538,46.582 C18.003,54.307 20.675,58.573 24.625,64.149 C23.606,64.713 22.555,65.979 21.278,67.204 C20.519,67.938 18.583,70.272 18.13,70.272 C17.053,70.272 16.065,66.846 14.975,66.592 C12.424,67.207 9.851,67.807 7.102,68.227 C6.613,66.907 5.804,65.901 5.332,64.545 C6.254,62.371 9.085,60.418 11.042,58.637 C9.987,56.035 9.191,53.194 8.872,49.842 C6.385,48.814 3.565,48.142 0.999,47.193 L0.999,42.697 C3.44,41.827 6.084,41.173 8.872,40.659 C9.16,37.276 9.885,34.351 11.042,31.872 C9.275,29.553 6.796,27.975 5.332,25.337 C6.244,24.246 6.542,22.507 7.695,21.665 C10.156,22.308 12.65,22.919 14.975,23.704 C16.859,21.164 19.182,19.085 21.078,16.558 C20.241,14.161 19.474,11.692 18.915,8.999 C19.789,7.798 21.276,7.229 22.455,6.342 C24.642,8.023 26.353,10.201 28.558,11.862 C30.944,10.38 33.94,9.533 36.831,8.587 C37.151,5.657 37.529,2.779 38.409,0.418 C39.744,0.24 40.959,-0.062 42.542,0.014 C43.632,2.348 44.409,5.014 45.297,7.572 C48.333,7.831 51.593,7.847 53.955,8.793 C56.027,6.797 57.108,3.754 59.465,2.052 C60.583,2.803 62.328,2.909 63.213,3.892 C63.045,6.582 62.711,9.092 62.428,11.656 C65.057,13.341 67.528,15.203 70.101,16.962 C72.076,15.475 74.587,14.544 76.989,13.496 C78.091,14.534 79.289,15.472 79.951,16.962 C78.574,19.278 77.08,21.488 75.611,23.704 C77.406,26.065 78.797,28.843 79.951,31.873 C82.707,31.81 85.289,31.915 87.817,32.079 C88.473,33.104 88.505,34.767 89,35.955 L89,35.955 Z" id="Shape"></path>
                <path d="M13.205,97.236 L13.005,97.236 C11.944,96.298 10.419,95.826 9.665,94.58 C10.353,91.894 11.4,89.578 12.22,87.021 C11.169,85.859 9.811,85.031 9.073,83.541 C10.288,82.764 10.938,81.693 12.22,80.486 C12.763,79.978 14.829,77.566 15.568,77.632 C15.608,77.634 17.587,79.568 17.93,79.876 C20.693,82.282 23.475,84.028 26.596,85.388 C25.418,88.052 24.669,91.15 23.441,93.755 C22.06,93.22 20.595,92.771 19.508,91.921 C17.341,93.631 15.338,95.484 13.205,97.236 L13.205,97.236 Z" id="Shape"></path>
            </g>
        </g>
    </g>
</svg>