<?xml version="1.0" encoding="UTF-8" standalone="no"?>
<svg width="61px" height="46px" viewBox="0 0 61 46" version="1.1" xmlns="http://www.w3.org/2000/svg" xmlns:xlink="http://www.w3.org/1999/xlink" xmlns:sketch="http://www.bohemiancoding.com/sketch/ns">
    <!-- Generator: Sketch 3.3.3 (12081) - http://www.bohemiancoding.com/sketch -->
    <title>Slice 1</title>
    <desc>Created with Sketch.</desc>
    <defs></defs>
    <g id="Page-1" stroke="none" stroke-width="1" fill="none" fill-rule="evenodd" sketch:type="MSPage">
        <g id="noun_127246_cc" sketch:type="MSLayerGroup" fill="#000000">
            <g id="Group" sketch:type="MSShapeGroup">
                <path d="M37.436,15.624 C31.153,15.624 26.042,20.736 26.042,27.018 C26.042,33.3 31.152,38.412 37.436,38.412 C43.717,38.412 48.829,33.3 48.829,27.018 C48.829,20.736 43.717,15.624 37.436,15.624 L37.436,15.624 Z M37.436,35.723 C32.627,35.723 28.731,31.825 28.731,27.018 C28.731,22.211 32.627,18.314 37.436,18.314 C42.243,18.314 46.14,22.211 46.14,27.018 C46.14,31.825 42.242,35.723 37.436,35.723 L37.436,35.723 Z" id="Shape"></path>
                <path d="M57.135,8.042 L30,8.042 L30,7.018 L37.436,7.018 L37.436,0.009 L17.266,0.009 L17.266,7.018 L22.394,7.018 L22.394,8.042 L2.865,8.042 C1.289,8.042 -3.55271368e-15,9.332 -3.55271368e-15,10.907 L-3.55271368e-15,43.126 C-3.55271368e-15,44.701 1.289,45.991 2.865,45.991 L57.135,45.991 C58.711,45.991 60,44.701 60,43.126 L60,10.907 C60,9.332 58.711,8.042 57.135,8.042 L57.135,8.042 Z M10.77,42.742 L3.932,42.742 L3.932,40.35 L10.77,40.35 L10.77,42.742 L10.77,42.742 Z M19.145,21.203 L4.615,21.203 L4.615,13.171 L19.145,13.171 L19.145,21.203 L19.145,21.203 Z M37.436,42.158 C29.086,42.158 22.295,35.364 22.295,27.017 C22.295,18.668 29.087,11.877 37.436,11.877 C45.784,11.877 52.577,18.668 52.577,27.017 C52.576,35.364 45.783,42.158 37.436,42.158 L37.436,42.158 Z" id="Shape"></path>
            </g>
        </g>
    </g>
</svg>