<?xml version="1.0" encoding="UTF-8" standalone="no"?>
<svg width="45px" height="58px" viewBox="0 0 45 58" version="1.1" xmlns="http://www.w3.org/2000/svg" xmlns:xlink="http://www.w3.org/1999/xlink" xmlns:sketch="http://www.bohemiancoding.com/sketch/ns">
    <!-- Generator: Sketch 3.3.3 (12081) - http://www.bohemiancoding.com/sketch -->
    <title>Slice 1</title>
    <desc>Created with Sketch.</desc>
    <defs></defs>
    <g id="Page-1" stroke="none" stroke-width="1" fill="none" fill-rule="evenodd" sketch:type="MSPage">
        <g id="Stroke-1-+-Stroke-2" sketch:type="MSLayerGroup" transform="translate(1.000000, 1.000000)" stroke="#FFFFFF" stroke-width="2">
            <path d="M42.3148667,20.8884706 C42.3148667,32.2715294 32.9461222,41.4992941 21.3886778,41.4992941 C9.83171111,41.4992941 0.462966667,32.2715294 0.462966667,20.8884706 C0.462966667,9.50494118 9.83171111,0.277176471 21.3886778,0.277176471 C32.9461222,0.277176471 42.3148667,9.50494118 42.3148667,20.8884706 L42.3148667,20.8884706 Z M42.3148667,35.0061176 C42.3148667,46.3891765 32.9461222,55.6169412 21.3886778,55.6169412 C9.83171111,55.6169412 0.462966667,46.3891765 0.462966667,35.0061176 C0.462966667,23.6225882 9.83171111,14.3948235 21.3886778,14.3948235 C32.9461222,14.3948235 42.3148667,23.6225882 42.3148667,35.0061176 L42.3148667,35.0061176 Z" id="Stroke-1" sketch:type="MSShapeGroup"></path>
            <path d="M32.0033274,21.5792179 C29.8344647,18.0987391 25.9285964,15.7438309 21.4789887,15.7438309 C14.6676629,15.7438309 9.14276597,21.1654367 9.14276597,27.8738378 C9.14276597,34.5826677 14.6628741,40.0801691 21.4742,40.0801691 C28.2855259,40.0801691 33.805634,34.4240158 33.805634,27.9921835 L21.4977083,27.9921835" id="Stroke-2" sketch:type="MSShapeGroup"></path>
        </g>
    </g>
</svg>