<?xml version="1.0" encoding="UTF-8" standalone="no"?>
<svg width="32px" height="26px" viewBox="0 0 32 26" version="1.1" xmlns="http://www.w3.org/2000/svg" xmlns:xlink="http://www.w3.org/1999/xlink" xmlns:sketch="http://www.bohemiancoding.com/sketch/ns">
    <!-- Generator: Sketch 3.3.3 (12081) - http://www.bohemiancoding.com/sketch -->
    <title>Slice 1</title>
    <desc>Created with Sketch.</desc>
    <defs></defs>
    <g id="Page-1" stroke="none" stroke-width="1" fill="none" fill-rule="evenodd" sketch:type="MSPage">
        <g id="noun_65788_cc" sketch:type="MSLayerGroup" fill="#000000">
            <path d="M29.5,8.5 C28.7,8.5 28,9.2 28,10 L28,10.5 L23,10.5 L23,8.5 C23,7.9 22.6,7.5 22,7.5 L20,7.5 L20,2.5 C20,1.9 19.6,1.5 19,1.5 L12,1.5 L12,0.5 L3,0.5 L3,4.5 L12,4.5 L12,3.5 L18,3.5 L18,7.5 L1,7.5 C0.4,7.5 0,7.9 0,8.5 L0,24.5 C0,25.1 0.4,25.5 1,25.5 L22,25.5 C22.6,25.5 23,24.5 23,24.5 L23,22.5 L28,22.5 L28,23 C28,23.8 28.7,24.5 29.5,24.5 L32,24.5 L32,8.5 L29.5,8.5 L29.5,8.5 Z M3.5,23.5 C3.2,23.5 3,23.3 3,23 C3,22.7 3.2,22.5 3.5,22.5 C3.8,22.5 4,22.7 4,23 C4,23.3 3.8,23.5 3.5,23.5 L3.5,23.5 Z M20,23.5 L14,23.5 L14,22.5 L20,22.5 L20,23.5 L20,23.5 Z M21,13.5 C21,14.1 20.6,14.5 20,14.5 L3,14.5 C2.4,14.5 2,14.1 2,13.5 L2,10.5 C2,9.9 2.4,9.5 3,9.5 L20,9.5 C20.6,9.5 21,9.9 21,10.5 L21,13.5 L21,13.5 Z" id="Shape" sketch:type="MSShapeGroup"></path>
        </g>
    </g>
</svg>